<svg width="25" height="24" viewBox="0 0 25 24" fill="none" xmlns="http://www.w3.org/2000/svg">
<rect width="24" height="24" transform="translate(0.5)"/>
<path d="M11.0999 12.7101C11.0062 12.6171 10.9318 12.5065 10.881 12.3846C10.8302 12.2628 10.8041 12.1321 10.8041 12.0001C10.8041 11.868 10.8302 11.7373 10.881 11.6155C10.9318 11.4936 11.0062 11.383 11.0999 11.2901L15.6899 6.71006C15.7836 6.6171 15.858 6.5065 15.9088 6.38464C15.9596 6.26278 15.9857 6.13207 15.9857 6.00006C15.9857 5.86805 15.9596 5.73734 15.9088 5.61548C15.858 5.49362 15.7836 5.38302 15.6899 5.29006C15.5025 5.10381 15.2491 4.99927 14.9849 4.99927C14.7207 4.99927 14.4673 5.10381 14.2799 5.29006L9.68989 9.88006C9.12809 10.4426 8.81253 11.2051 8.81253 12.0001C8.81253 12.7951 9.12809 13.5576 9.68989 14.1201L14.2799 18.7101C14.4662 18.8948 14.7176 18.999 14.9799 19.0001C15.1115 19.0008 15.242 18.9756 15.3638 18.9258C15.4856 18.8761 15.5965 18.8027 15.6899 18.7101C15.7836 18.6171 15.858 18.5065 15.9088 18.3846C15.9596 18.2628 15.9857 18.1321 15.9857 18.0001C15.9857 17.868 15.9596 17.7373 15.9088 17.6155C15.858 17.4936 15.7836 17.383 15.6899 17.2901L11.0999 12.7101Z" fill="#120E0D"/>
</svg>
