<svg width="25" height="24" viewBox="0 0 25 24" fill="none" xmlns="http://www.w3.org/2000/svg">
<rect width="24" height="24" transform="translate(0.5)" fill="#FCFBF9" fill-opacity="0.5"/>
<path d="M15.8998 9.88006L11.3098 5.29006C11.1225 5.10381 10.869 4.99927 10.6048 4.99927C10.3406 4.99927 10.0872 5.10381 9.89983 5.29006C9.8061 5.38302 9.7317 5.49362 9.68093 5.61548C9.63017 5.73734 9.60403 5.86805 9.60403 6.00006C9.60403 6.13207 9.63017 6.26278 9.68093 6.38464C9.7317 6.5065 9.8061 6.6171 9.89983 6.71006L14.4998 11.2901C14.5936 11.383 14.6679 11.4936 14.7187 11.6155C14.7695 11.7373 14.7956 11.868 14.7956 12.0001C14.7956 12.1321 14.7695 12.2628 14.7187 12.3846C14.6679 12.5065 14.5936 12.6171 14.4998 12.7101L9.89983 17.2901C9.71152 17.477 9.60521 17.7312 9.60427 17.9965C9.60333 18.2619 9.70785 18.5168 9.89483 18.7051C10.0818 18.8934 10.3359 18.9997 10.6013 19.0006C10.8667 19.0016 11.1215 18.897 11.3098 18.7101L15.8998 14.1201C16.4616 13.5576 16.7772 12.7951 16.7772 12.0001C16.7772 11.2051 16.4616 10.4426 15.8998 9.88006Z" fill="#211C20"/>
</svg>
