<svg width="83" height="83" viewBox="0 0 83 83" fill="none" xmlns="http://www.w3.org/2000/svg">
<path d="M41.6471 20.1534C29.9093 20.1534 20.4416 29.6233 20.4416 41.3637C20.4416 53.1041 29.9093 62.5739 41.6471 62.5739C53.3849 62.5739 62.8526 53.1041 62.8526 41.3637C62.8526 29.6233 53.3849 20.1534 41.6471 20.1534ZM41.6471 55.1531C34.0618 55.1531 27.8607 48.9691 27.8607 41.3637C27.8607 33.7583 34.0434 27.5743 41.6471 27.5743C49.2508 27.5743 55.4334 33.7583 55.4334 41.3637C55.4334 48.9691 49.2324 55.1531 41.6471 55.1531ZM68.6661 19.2858C68.6661 22.0363 66.4515 24.233 63.72 24.233C60.9701 24.233 58.7739 22.0179 58.7739 19.2858C58.7739 16.5538 60.9886 14.3386 63.72 14.3386C66.4515 14.3386 68.6661 16.5538 68.6661 19.2858ZM82.7109 24.3069C82.3971 17.6798 80.8838 11.8096 76.0299 6.97317C71.1946 2.13671 65.3257 0.623017 58.7001 0.290741C51.8715 -0.0969137 31.4042 -0.0969137 24.5756 0.290741C17.9685 0.604557 12.0996 2.11826 7.24579 6.95471C2.39195 11.7912 0.897048 17.6614 0.564846 24.2884C0.177278 31.1185 0.177278 51.5904 0.564846 58.4205C0.878592 65.0475 2.39195 70.9177 7.24579 75.7542C12.0996 80.5907 17.9501 82.1044 24.5756 82.4366C31.4042 82.8243 51.8715 82.8243 58.7001 82.4366C65.3257 82.1228 71.1946 80.6091 76.0299 75.7542C80.8653 70.9177 82.3787 65.0475 82.7109 58.4205C83.0984 51.5904 83.0984 31.137 82.7109 24.3069ZM73.8891 65.749C72.4495 69.3671 69.6627 72.1546 66.027 73.6129C60.5826 75.7727 47.6636 75.2743 41.6471 75.2743C35.6306 75.2743 22.6932 75.7542 17.2672 73.6129C13.6499 72.173 10.8631 69.3856 9.4051 65.749C7.24579 60.3034 7.74409 47.3816 7.74409 41.3637C7.74409 35.3458 7.26424 22.4055 9.4051 16.9784C10.8446 13.3602 13.6314 10.5728 17.2672 9.1145C22.7116 6.95471 35.6306 7.45312 41.6471 7.45312C47.6636 7.45312 60.601 6.97317 66.027 9.1145C69.6443 10.5544 72.4311 13.3418 73.8891 16.9784C76.0484 22.424 75.5501 35.3458 75.5501 41.3637C75.5501 47.3816 76.0484 60.3219 73.8891 65.749Z" fill="#FF9A04"/>
</svg>
