<svg width="70" height="70" viewBox="0 0 70 70" fill="none" xmlns="http://www.w3.org/2000/svg">
<rect x="2.5" y="2.5" width="65" height="65" rx="32.5" stroke="#9AAC48" stroke-width="5"/>
<g opacity="0.5">
<path d="M43.765 53.8358C21.4534 52.4478 24.097 36.2537 24.097 27C36.3877 27.9426 41.5798 36.3107 43.2213 44.7749C44.4355 41.9345 48.4122 36.3463 54.6048 36.7164C55.7261 42.1144 55.1281 53.0955 43.765 53.8358Z" fill="#9AAC48"/>
<path d="M43.765 53.8358C21.4534 52.4478 24.097 36.2537 24.097 27C36.3877 27.9426 41.5798 36.3107 43.2213 44.7749M43.765 53.8358L33.6592 42.7313M43.765 53.8358C44.0174 52.593 43.6646 55.3493 43.765 53.8358ZM43.765 53.8358C43.9499 51.0497 43.8285 47.9057 43.2213 44.7749M43.765 53.8358C55.1281 53.0955 55.7261 42.1144 54.6048 36.7164C48.4122 36.3463 44.4355 41.9345 43.2213 44.7749" stroke="#9AAC48" stroke-width="2" stroke-linecap="round"/>
</g>
<path d="M40.1065 56.5C40.3837 55.1569 40.5933 53.6355 40.7036 52M40.7036 52C16.2036 50.5 19.1066 33 19.1065 23C32.6027 24.0186 38.3041 33.0616 40.1065 42.2083M40.7036 52L29.6066 40M40.7036 52C40.9066 48.9892 40.7732 45.5916 40.1065 42.2083M40.7036 52C53.1811 51.2 53.8378 39.3333 52.6066 33.5C45.8066 33.1 41.4399 39.1389 40.1065 42.2083" stroke="#9AAC48" stroke-width="2" stroke-linecap="round"/>
</svg>
