<svg width="70" height="70" viewBox="0 0 70 70" fill="none" xmlns="http://www.w3.org/2000/svg">
<rect x="2.5" y="2.5" width="65" height="65" rx="32.5" stroke="#211C20" stroke-width="5"/>
<path d="M49.7349 14.8969L53.4776 18.7466M49.7036 36.8981H20.5102C18.827 36.8981 17.4626 35.5336 17.4626 33.8504C17.4626 32.1673 18.8271 30.8028 20.5102 30.8028H49.7036C51.3868 30.8028 52.7513 32.1673 52.7513 33.8504C52.7513 35.5336 51.3868 36.8981 49.7036 36.8981ZM49.7036 36.8981H35M49.7036 36.8981H49.8105M27.3541 49.0887H43.1805M27.3541 49.0887C25.6709 49.0887 24.3064 50.4532 24.3064 52.1364C24.3064 53.8196 25.6709 55.1841 27.3541 55.1841H43.1805C44.8637 55.1841 46.2282 53.8196 46.2282 52.1364C46.2282 50.4532 44.8637 49.0887 43.1805 49.0887M27.3541 49.0887H35M27.3541 49.0887H23.8252M43.1805 49.0887H35M43.1805 49.0887H46.2817M23.8252 42.9934C22.142 42.9934 20.7776 44.3579 20.7776 46.0411C20.7776 47.7243 22.1421 49.0887 23.8252 49.0887M23.8252 42.9934H28.9047M23.8252 42.9934H20.6172M46.2817 42.9934C47.9649 42.9934 49.3293 44.3579 49.3293 46.0411C49.3293 47.7243 47.9649 49.0887 46.2817 49.0887M46.2817 42.9934H41.0953M46.2817 42.9934H49.8105C51.4937 42.9934 52.8582 41.6289 52.8582 39.9458C52.8582 38.2626 51.4937 36.8981 49.8105 36.8981M46.2817 49.0887H23.8252M20.6172 36.8981H49.8105M20.6172 36.8981C18.934 36.8981 17.5695 38.2626 17.5695 39.9458C17.5695 41.6289 18.934 42.9934 20.6172 42.9934M20.6172 36.8981H35M20.6172 42.9934H28.9047M41.0953 42.9934C41.0953 46.3598 38.3663 49.0887 35 49.0887M41.0953 42.9934C41.0953 39.6271 38.3663 36.8981 35 36.8981M35 49.0887C31.7593 49.0887 29.104 46.4575 28.9106 43.2655C28.9031 43.1417 28.9047 43.1191 28.9047 42.9934M28.9047 42.9934C28.9047 42.8858 28.9051 42.8276 28.9106 42.7214C29.0774 39.5041 31.7412 36.8981 35 36.8981M15.11 14.8159H54.89M33.3158 18.6121V14.8159M37.7001 18.6123V14.8159M27.2472 24.7075H43.0736C44.7568 24.7075 46.1213 23.343 46.1213 21.6598C46.1213 19.9766 44.7568 18.6121 43.0736 18.6121H27.2472C25.564 18.6121 24.1995 19.9766 24.1995 21.6598C24.1995 23.343 25.564 24.7075 27.2472 24.7075ZM23.7183 30.8028H46.1747C47.8579 30.8028 49.2224 29.4383 49.2224 27.7551C49.2224 26.0719 47.8579 24.7075 46.1747 24.7075H23.7183C22.0351 24.7075 20.6706 26.0719 20.6706 27.7551C20.6706 29.4383 22.0351 30.8028 23.7183 30.8028Z" stroke="#211C20" stroke-width="2" stroke-linecap="round"/>
<g opacity="0.5">
<path d="M28.2258 24.2729C28.2258 22.7301 29.4606 21.4795 30.9839 21.4795H45.3064C46.8297 21.4795 48.0645 22.7301 48.0645 24.2729C48.0645 25.8156 46.8297 27.0662 45.3064 27.0662H30.9839C29.4606 27.0662 28.2258 25.8156 28.2258 24.2729Z" fill="#211C20"/>
<path d="M25.0323 29.8596C25.0323 28.3169 26.2671 27.0662 27.7903 27.0662H48.1129C49.6361 27.0662 50.871 28.3169 50.871 29.8596C50.871 31.4024 49.6361 32.653 48.1129 32.653H27.7903C26.2671 32.653 25.0323 31.4024 25.0323 29.8596Z" fill="#211C20"/>
<path d="M22.129 35.4464C22.129 33.9036 23.3639 32.653 24.8871 32.653H51.3064C52.8297 32.653 54.0645 33.9036 54.0645 35.4464C54.0645 36.9891 52.8297 38.2398 51.3064 38.2398H24.8871C23.3639 38.2398 22.129 36.9891 22.129 35.4464Z" fill="#211C20"/>
<path d="M28.3226 52.2066C28.3226 53.7494 29.5574 55 31.0806 55H45.4032C46.9265 55 48.1613 53.7494 48.1613 52.2066C48.1613 50.6639 46.9265 49.4133 45.4032 49.4133H31.0806C29.5574 49.4133 28.3226 50.6639 28.3226 52.2066Z" fill="#211C20"/>
<path d="M38 38.2398H24.9839C23.4606 38.2398 22.2258 39.4904 22.2258 41.0331C22.2258 42.5759 23.4606 43.8265 24.9839 43.8265H27.8871H32.4839C32.4839 43.7279 32.4843 43.6745 32.4893 43.5772C32.6402 40.6284 35.0509 38.2398 38 38.2398Z" fill="#211C20"/>
<path d="M51.3064 38.2398H38C41.0465 38.2398 43.5161 40.741 43.5161 43.8265H48.2097H51.4032C52.9265 43.8265 54.1613 42.5759 54.1613 41.0331C54.1613 39.4904 52.9265 38.2398 51.4032 38.2398H51.3064Z" fill="#211C20"/>
<path d="M38 49.4133H45.4032H48.2097C49.7329 49.4133 50.9677 48.1626 50.9677 46.6199C50.9677 45.0772 49.7329 43.8265 48.2097 43.8265H43.5161C43.5161 46.912 41.0465 49.4133 38 49.4133Z" fill="#211C20"/>
<path d="M31.0806 49.4133H38C35.0673 49.4133 32.6642 47.0016 32.4893 44.0759C32.4825 43.9624 32.4839 43.9417 32.4839 43.8265H27.8871C26.3639 43.8265 25.129 45.0772 25.129 46.6199C25.129 48.1626 26.3639 49.4133 27.8871 49.4133H31.0806Z" fill="#211C20"/>
<path d="M51.3064 38.2398H24.8871C23.3639 38.2398 22.129 36.9891 22.129 35.4464C22.129 33.9036 23.3639 32.653 24.8871 32.653H51.3064C52.8297 32.653 54.0645 33.9036 54.0645 35.4464C54.0645 36.9891 52.8297 38.2398 51.3064 38.2398ZM51.3064 38.2398H38M51.3064 38.2398H51.4032M31.0806 49.4133H45.4032M31.0806 49.4133C29.5574 49.4133 28.3226 50.6639 28.3226 52.2066C28.3226 53.7494 29.5574 55 31.0806 55H45.4032C46.9265 55 48.1613 53.7494 48.1613 52.2066C48.1613 50.6639 46.9265 49.4133 45.4032 49.4133M31.0806 49.4133H38M31.0806 49.4133H27.8871M45.4032 49.4133H38M45.4032 49.4133H48.2097M27.8871 43.8265C26.3639 43.8265 25.129 45.0772 25.129 46.6199C25.129 48.1626 26.3639 49.4133 27.8871 49.4133M27.8871 43.8265H32.4839M27.8871 43.8265H24.9839M48.2097 43.8265C49.7329 43.8265 50.9677 45.0772 50.9677 46.6199C50.9677 48.1626 49.7329 49.4133 48.2097 49.4133M48.2097 43.8265H43.5161M48.2097 43.8265H51.4032C52.9265 43.8265 54.1613 42.5759 54.1613 41.0331C54.1613 39.4904 52.9265 38.2398 51.4032 38.2398M48.2097 49.4133H27.8871M24.9839 38.2398H51.4032M24.9839 38.2398C23.4606 38.2398 22.2258 39.4904 22.2258 41.0331C22.2258 42.5759 23.4606 43.8265 24.9839 43.8265M24.9839 38.2398H38M24.9839 43.8265H32.4839M43.5161 43.8265C43.5161 46.912 41.0465 49.4133 38 49.4133M43.5161 43.8265C43.5161 40.741 41.0465 38.2398 38 38.2398M38 49.4133C35.0673 49.4133 32.6642 47.0016 32.4893 44.0759C32.4825 43.9624 32.4839 43.9417 32.4839 43.8265M32.4839 43.8265C32.4839 43.7279 32.4843 43.6745 32.4893 43.5772C32.6402 40.6284 35.0509 38.2398 38 38.2398M30.9839 27.0662H45.3064C46.8297 27.0662 48.0645 25.8156 48.0645 24.2729C48.0645 22.7301 46.8297 21.4795 45.3064 21.4795H30.9839C29.4606 21.4795 28.2258 22.7301 28.2258 24.2729C28.2258 25.8156 29.4606 27.0662 30.9839 27.0662ZM27.7903 32.653H48.1129C49.6361 32.653 50.871 31.4024 50.871 29.8596C50.871 28.3169 49.6361 27.0662 48.1129 27.0662H27.7903C26.2671 27.0662 25.0323 28.3169 25.0323 29.8596C25.0323 31.4024 26.2671 32.653 27.7903 32.653Z" stroke="#211C20" stroke-width="2" stroke-linecap="round"/>
</g>
</svg>
