<svg width="70" height="70" viewBox="0 0 70 70" fill="none" xmlns="http://www.w3.org/2000/svg">
<rect x="2.5" y="2.5" width="65" height="65" rx="32.5" stroke="#FF9D00" stroke-width="5"/>
<g opacity="0.5">
<path d="M38.6223 18.3579C32.9154 18.3579 32.2156 24.9568 32.9747 27.2573C35.1609 26.3795 39.2599 25.9315 38.1668 31.1622C37.1149 34.1253 35.9987 36.5824 34.8528 38.6086H38.5312H42.3006C41.1548 36.5824 40.0385 34.1253 38.9866 31.1622C37.8935 25.9315 41.9926 26.3795 44.1787 27.2573C44.9378 24.9568 44.3291 18.3579 38.6223 18.3579Z" fill="#FF9A04"/>
<path d="M32.2887 49.9599C33.6609 53.1061 35.7403 56.0492 38.5312 56.2258C41.322 56.0492 43.4926 53.1061 44.8647 49.9599H38.5312H32.2887Z" fill="#FF9D00"/>
<path d="M30.5153 44.3067H38.5312H46.6381C45.1909 42.9752 43.723 41.1238 42.3006 38.6086H38.5312H34.8528C33.4305 41.1238 31.9625 42.9752 30.5153 44.3067Z" fill="#FF9D00"/>
<path d="M30.5153 44.3067C30.8129 45.817 31.4037 47.9307 32.2887 49.9599H38.5312H44.8647C45.7497 47.9307 46.3405 45.817 46.6381 44.3067H38.5312H30.5153Z" fill="#FF9A04"/>
<path d="M32.9747 27.2573C19.9489 33.9773 14.939 41.0605 19.8578 46.1459C22.036 47.6187 26.1825 48.2929 30.5153 44.3067C31.9625 42.9752 33.4305 41.1238 34.8528 38.6086C35.9987 36.5824 37.1149 34.1253 38.1668 31.1622C39.2599 25.9315 35.1609 26.3795 32.9747 27.2573Z" fill="#FF9D00"/>
<path d="M57.2956 46.1459C62.2145 41.0605 57.2045 33.9773 44.1787 27.2573C41.9926 26.3795 37.8935 25.9315 38.9866 31.1622C40.0385 34.1253 41.1548 36.5824 42.3006 38.6086C43.723 41.1238 45.1909 42.9752 46.6381 44.3067C50.9709 48.2929 55.1175 47.6187 57.2956 46.1459Z" fill="#FF9A04"/>
<path d="M32.9747 27.2573C32.2156 24.9568 32.9154 18.3579 38.6223 18.3579C44.3291 18.3579 44.9378 24.9568 44.1787 27.2573M32.9747 27.2573C19.9489 33.9773 14.939 41.0605 19.8578 46.1459C22.036 47.6187 26.1825 48.2929 30.5153 44.3067M32.9747 27.2573C35.1609 26.3795 39.2599 25.9315 38.1668 31.1622C37.1149 34.1253 35.9987 36.5824 34.8528 38.6086M30.5153 44.3067C30.8129 45.817 31.4037 47.9307 32.2887 49.9599M30.5153 44.3067H38.5312H46.6381M30.5153 44.3067C31.9625 42.9752 33.4305 41.1238 34.8528 38.6086M32.2887 49.9599C33.6609 53.1061 35.7403 56.0492 38.5312 56.2258C41.322 56.0492 43.4926 53.1061 44.8647 49.9599M32.2887 49.9599H38.5312H44.8647M34.8528 38.6086H38.5312H42.3006M32.9747 31.1622C31.1529 31.8887 27.145 33.8683 25.6875 35.9751M22.9549 38.6994L23.137 38.5178M44.1787 27.2573C57.2045 33.9773 62.2145 41.0605 57.2956 46.1459C55.1175 47.6187 50.9709 48.2929 46.6381 44.3067M44.1787 27.2573C41.9926 26.3795 37.8935 25.9315 38.9866 31.1622C40.0385 34.1253 41.1548 36.5824 42.3006 38.6086M46.6381 44.3067C46.3405 45.817 45.7497 47.9307 44.8647 49.9599M46.6381 44.3067C45.1909 42.9752 43.723 41.1238 42.3006 38.6086M44.1787 31.1622C46.0005 31.8887 50.0084 33.8683 51.4659 35.9751M54.1986 38.6994L54.0164 38.5178" stroke="#FF9A04" stroke-width="2" stroke-linecap="round" stroke-linejoin="round"/>
</g>
<path d="M29.398 26.7362C28.6389 24.4357 29.3387 17.8368 35.0455 17.8368C40.7524 17.8368 41.3611 24.4357 40.602 26.7362M29.398 26.7362C16.3722 33.4562 11.3623 40.5394 16.2811 45.6248C18.4592 47.0976 22.6058 47.7718 26.9386 43.7856M29.398 26.7362C31.5841 25.8584 35.6832 25.4104 34.5901 30.6411C33.5382 33.6042 32.422 36.0613 31.2761 38.0875M26.9386 43.7856C27.2362 45.2959 27.827 47.4096 28.712 49.4388M26.9386 43.7856H34.9544H43.0614M26.9386 43.7856C28.3858 42.4541 29.8538 40.6028 31.2761 38.0875M34.9544 55.7047V57.5209M34.9544 55.7047C32.1636 55.5281 30.0841 52.585 28.712 49.4388M34.9544 55.7047C37.7453 55.5281 39.9158 52.585 41.288 49.4388M28.712 49.4388H34.9544H41.288M31.2761 38.0875H34.9544H38.7239M29.398 30.6411C27.5762 31.3676 23.5683 33.3472 22.1108 35.454M19.3781 38.1783L19.5603 37.9967M33.7703 17.9276C33.1327 16.2022 30.819 12.6969 26.6653 12.479M40.602 26.7362C53.6278 33.4562 58.6377 40.5394 53.7189 45.6248C51.5408 47.0976 47.3942 47.7718 43.0614 43.7856M40.602 26.7362C38.4159 25.8584 34.3168 25.4104 35.4099 30.6411C36.4618 33.6042 37.578 36.0613 38.7239 38.0875M43.0614 43.7856C42.7638 45.2959 42.173 47.4096 41.288 49.4388M43.0614 43.7856C41.6142 42.4541 40.1462 40.6028 38.7239 38.0875M40.602 30.6411C42.4238 31.3676 46.4317 33.3472 47.8892 35.454M50.6218 38.1783L50.4397 37.9967M36.2297 17.9276C36.8673 16.2022 39.181 12.6969 43.3347 12.479" stroke="#FF9D00" stroke-width="2" stroke-linecap="round" stroke-linejoin="round"/>
</svg>
