<?xml version="1.0" standalone="no"?>
<!DOCTYPE svg PUBLIC "-//W3C//DTD SVG 20010904//EN"
 "http://www.w3.org/TR/2001/REC-SVG-20010904/DTD/svg10.dtd">
<svg version="1.0" xmlns="http://www.w3.org/2000/svg"
 width="700.000000pt" height="700.000000pt" viewBox="0 0 700.000000 700.000000"
 preserveAspectRatio="xMidYMid meet">
<metadata>
Created by potrace 1.14, written by Peter Selinger 2001-2017
</metadata>
<g transform="translate(0.000000,700.000000) scale(0.100000,-0.100000)"
fill="#000000" stroke="none">
<path d="M1460 6748 c-25 -4 -52 -11 -60 -15 -8 -3 -17 -7 -20 -7 -3 -1 -27
-12 -54 -25 -65 -32 -157 -125 -189 -192 -56 -114 -53 6 -52 -2424 1 -1237 5
-2275 9 -2305 10 -73 55 -177 106 -241 34 -44 158 -149 174 -149 5 0 131 -71
176 -99 18 -12 226 -131 256 -147 25 -14 284 -161 304 -174 8 -5 58 -33 110
-63 52 -29 160 -91 240 -137 80 -46 161 -92 180 -103 61 -34 513 -294 550
-315 69 -41 179 -80 247 -88 37 -4 71 -7 74 -7 3 1 30 4 60 7 31 3 86 18 125
34 38 16 339 183 669 372 330 189 618 353 640 365 40 22 136 77 165 94 8 5 96
55 195 112 328 186 374 218 438 302 54 72 87 149 101 237 16 100 14 2270 -2
2345 -35 162 -146 295 -332 397 -25 14 -173 98 -330 188 -157 90 -298 171
-315 180 -16 9 -284 162 -594 340 -660 377 -654 374 -776 386 -33 3 -62 7 -65
7 -3 0 -32 -3 -65 -8 -65 -9 -168 -48 -233 -89 -23 -14 -44 -26 -47 -26 -2 0
-39 -20 -81 -45 -41 -25 -77 -45 -79 -45 -3 0 -39 -21 -82 -46 -43 -25 -85
-49 -93 -54 -8 -5 -188 -107 -400 -229 -212 -121 -392 -222 -400 -225 -13 -6
-15 81 -15 746 1 599 -2 763 -13 803 -43 162 -167 292 -314 331 -68 17 -151
22 -208 12z m2153 -2157 c56 -32 120 -69 142 -81 46 -26 383 -218 435 -248 19
-12 51 -29 70 -40 19 -11 195 -111 390 -223 l355 -204 0 -856 0 -855 -559
-320 c-307 -175 -582 -332 -610 -348 -90 -50 -129 -72 -228 -130 -53 -31 -102
-56 -109 -56 -6 0 -34 13 -61 30 -26 16 -50 30 -52 30 -2 0 -53 29 -114 64
-61 36 -133 77 -159 92 -26 14 -156 88 -288 164 -132 76 -258 148 -280 160
-22 12 -101 57 -175 100 -75 43 -158 91 -185 106 -28 15 -81 46 -120 69 l-70
41 0 856 0 856 45 24 c25 14 171 97 325 185 154 88 300 171 325 185 25 14 83
48 130 75 47 27 92 52 100 56 8 4 29 16 46 26 40 24 368 213 432 248 26 14 56
32 67 39 11 8 25 14 33 14 7 0 59 -26 115 -59z"/>
</g>
</svg>
