<svg width="1478" height="648" viewBox="0 0 1478 648" fill="none" xmlns="http://www.w3.org/2000/svg">
<path d="M0.208708 0H1478V578.469C1478 578.469 1410.97 579.419 1368.05 578.469C1321.07 577.431 1294.68 569.141 1247.89 572.901C1199.93 576.754 1176.24 597.101 1128.1 598.52C1065.94 600.351 1035.33 564.044 973.186 566.253C910.555 568.479 882.714 601.979 820.715 610.038C705.675 624.991 439.783 578.469 439.783 578.469C439.783 578.469 312.235 581.33 230.869 588.565C220.348 589.501 210.071 592.499 200.271 595.662C188.469 599.471 177.358 603.519 167.34 604.492C130.582 608.064 104.123 600.676 81.3309 601.229C13.008 602.889 1.7233 588.753 0.208708 581.969C-0.260892 579.866 0.208708 578.469 0.208708 578.469V0Z" fill="#211C20"/>
<path d="M81.3309 601.229C13.008 602.889 1.7233 588.753 0.208708 581.969V648H1478V578.469C1478 578.469 1410.97 579.419 1368.05 578.469C1321.07 577.431 1294.68 569.141 1247.89 572.901C1199.93 576.754 1176.24 597.101 1128.1 598.52C1065.94 600.351 1035.33 564.044 973.186 566.253C910.555 568.479 882.714 601.979 820.715 610.038C705.675 624.991 439.783 578.469 439.783 578.469C439.783 578.469 314.054 588.82 200.271 595.662C188.469 599.471 177.358 603.519 167.34 604.492C130.582 608.064 104.123 600.676 81.3309 601.229Z" fill="#FCFBF9"/>
</svg>
