<svg width="1478" height="835" viewBox="0 0 1478 835" fill="none" xmlns="http://www.w3.org/2000/svg">
<path fill-rule="evenodd" clip-rule="evenodd" d="M71.4696 32.9291C53.7852 31.5628 36.0617 30.1934 0 33.8341V664.966C0.199746 666.213 2.62265 664.32 4.32621 662.988C4.92142 662.523 5.42882 662.127 5.7229 661.957C6.10923 661.733 6.49592 661.51 6.88301 661.286C6.90352 661.274 6.92406 661.262 6.94458 661.25C20.4451 653.44 34.4352 645.347 51.1328 643.318C53.8696 642.986 56.5768 642.587 59.2657 642.191C72.0008 640.314 84.3236 638.498 97.4137 644.095C111.581 650.152 116.16 664.251 118.331 675.77C118.834 678.441 119.207 680.972 119.541 683.233C120.001 686.35 120.385 688.951 120.927 690.691C120.885 693.006 120.9 695.363 120.915 697.739C120.966 706.025 121.019 714.553 118.688 722.434C117.823 725.357 117.607 728.327 117.391 731.303C117.208 733.819 117.025 736.34 116.449 738.84C115.231 744.126 114.334 750.111 114.334 755.488C114.334 768.226 115.522 781.957 120.305 794.173C123.377 802.017 130.305 811.08 140.211 814.558C147.386 817.078 160.119 818.623 167.892 816.5C180.689 813.005 190.229 810.104 198.684 799.512C205.864 790.517 208.207 783.299 208.264 771.943C208.298 765.137 206.686 760.243 204.895 754.806C204.891 754.796 204.887 754.785 204.884 754.774C204.808 754.544 204.732 754.313 204.656 754.081C203.249 749.8 202.594 745.377 201.939 740.95C201.453 737.673 200.968 734.394 200.177 731.171C195.809 713.373 195.17 693.511 199.555 675.644C199.949 674.04 200.291 672.426 200.634 670.81C201.721 665.69 202.809 660.563 205.527 655.744C209.14 649.336 213.368 645.294 218.901 640.018C224.172 634.991 238.39 627.005 252.751 623.515C268.743 619.628 288.047 617.077 294.978 623.515C300.432 628.581 302.451 635.377 304.41 641.972C305.284 644.912 306.146 647.812 307.295 650.502C308.12 652.433 308.735 654.709 309.376 657.083C311.429 664.68 313.752 673.277 324.09 674.771C332.44 675.977 339.747 673.444 346.546 669.771C355.205 665.094 358.064 653.768 360.312 644.863C360.856 642.707 361.365 640.693 361.911 638.95C366.611 623.948 382.546 609.648 401.411 605.168C407.982 603.608 422.145 605.164 427.724 608.371C437.304 613.879 442.832 623.661 444.271 632.64C444.735 635.536 443.895 638.704 443.079 641.779C442.666 643.335 442.26 644.866 442.032 646.328C440.723 654.702 437.398 662.765 433.82 670.693C432.822 672.906 431.026 675.871 428.912 679.36C420.591 693.096 407.342 714.966 418.382 731.171C427.222 744.15 437.537 751.572 454.505 750.293C469.049 749.197 481.346 735.185 483.709 732.045C491.134 722.181 492.322 714.655 489.93 703.456C489.172 699.908 488.877 696.242 488.583 692.588C488.403 690.356 488.223 688.128 487.939 685.934C487.665 683.817 487.256 681.658 486.844 679.483L486.844 679.481C485.96 674.807 485.061 670.061 485.451 665.5C485.566 664.148 485.666 662.727 485.768 661.258L485.768 661.254C486.493 650.871 487.383 638.104 495.404 630.31C507.356 618.696 530.685 613.265 551.796 618.167C575.966 620.946 605.647 670.693 578.607 701.505C555.539 729.149 527.472 780.337 594.905 790.523C610.755 792.917 616.956 789.958 636.486 780.639C637.66 780.078 638.881 779.495 640.156 778.889C662.646 768.195 680.751 744.062 662.646 714.998C644.541 685.934 692.94 652.385 692.94 652.385C692.94 652.385 732.365 632.395 747.584 637.591C754.376 639.909 758.822 644.924 763.06 649.705C764.39 651.205 765.7 652.682 767.055 654.045C774.841 661.879 783.078 669.657 792.497 676.324C820.463 696.121 851.161 676.032 876.676 659.336C883.643 654.777 890.223 650.471 896.255 647.299C909.411 640.381 929.933 639.76 941.043 650.162C944.059 652.986 946.539 656.114 949.021 659.246C951.283 662.1 953.547 664.956 956.221 667.587C963.62 674.866 971.252 680.095 981.477 684.964C1011.38 699.202 1043.27 681.437 1066.82 666.908C1071.21 664.2 1075.35 661.241 1079.48 658.291C1089.57 651.083 1099.59 643.925 1112.98 640.6C1129.89 636.403 1148.36 637.56 1164.24 643.998C1193.73 655.959 1187.17 682.291 1181.99 703.107C1181.75 704.077 1181.51 705.036 1181.28 705.98C1177.42 721.707 1177.3 737.619 1178.17 753.595C1179.05 769.64 1185.56 784.659 1208.15 788.3C1224.8 790.983 1237.73 781.866 1247.59 772.428C1252.59 767.647 1257.61 762.219 1259.85 756.216C1262.37 749.462 1260.56 742.06 1258.89 735.191C1258.88 735.183 1258.88 735.175 1258.88 735.167C1258.68 734.344 1258.48 733.529 1258.29 732.724C1256.14 723.562 1253.7 714.2 1248.84 705.64C1246.26 701.113 1242.73 697.095 1239.18 693.067L1239.18 693.065L1239.17 693.061C1237.34 690.972 1235.49 688.879 1233.78 686.711C1225.36 676.047 1218.36 662.235 1225.45 650.065C1232.31 638.283 1247.05 630.713 1262.89 627.981C1277.61 625.442 1306.31 622.766 1313.78 636.329C1319.01 645.838 1312.94 654.741 1307.23 663.128C1306.11 664.763 1305.01 666.379 1304.01 667.975C1299.49 675.189 1304.73 677.149 1313.78 677.877C1323.77 678.681 1332.85 677.288 1341.52 673.217C1352.84 667.905 1353.91 659.661 1355.06 650.751C1355.21 649.642 1355.35 648.522 1355.52 647.396C1357.07 636.926 1361.23 627.416 1366.78 617.885L1366.79 617.855C1372.41 608.194 1380.14 594.915 1393.46 590.51C1407.79 585.771 1418.52 596.974 1421.21 606.624C1423.78 615.892 1421.68 623.616 1419.45 631.789C1418.51 635.213 1417.56 638.716 1416.91 642.445C1415.44 651.022 1415.09 662.547 1424.81 668.364C1440.66 677.843 1463.55 673.111 1478 664.966V57.0788C1383.26 42.8846 1306.69 35.9136 1153.31 42.8846C1118.65 44.8391 958.829 54.3126 927.67 57.0788C896.512 59.845 835.915 55.6475 768.704 42.8846C701.492 30.1218 636.724 34.8216 512.899 53.621C434.564 65.5142 396.111 58.0706 354.115 49.9411C329.728 45.2204 304.147 40.2684 268.867 38.7371C250.723 37.9495 234.997 36.8664 220.184 35.8461C187.645 33.6049 159.513 31.6673 119.838 33.834C98.3618 35.0069 84.927 33.9689 71.4696 32.9291Z" fill="#FF9A04"/>
<path d="M114.334 755.488C114.334 750.111 115.231 744.126 116.449 738.84C117.025 736.34 117.208 733.819 117.391 731.303C117.607 728.327 117.823 725.357 118.688 722.434C121.019 714.553 120.966 706.025 120.915 697.739C120.9 695.363 120.885 693.006 120.927 690.691C120.385 688.951 120.001 686.35 119.541 683.233C119.207 680.972 118.834 678.441 118.331 675.77C116.16 664.251 111.581 650.152 97.4137 644.095C84.3236 638.498 72.0008 640.314 59.2657 642.191C56.5768 642.587 53.8696 642.986 51.1328 643.318C34.4352 645.347 20.4451 653.44 6.94458 661.25L6.88301 661.286C6.49592 661.51 6.10923 661.733 5.7229 661.957C5.42882 662.127 4.92142 662.523 4.32621 662.988C2.62265 664.32 0.199746 666.213 0 664.966V835H1478V664.966C1463.55 673.111 1440.66 677.843 1424.81 668.364C1415.09 662.547 1415.44 651.022 1416.91 642.445C1417.56 638.716 1418.51 635.213 1419.45 631.789C1421.68 623.616 1423.78 615.892 1421.21 606.624C1418.52 596.974 1407.79 585.771 1393.46 590.51C1380.14 594.915 1372.41 608.194 1366.79 617.855L1366.78 617.885C1361.23 627.416 1357.07 636.926 1355.52 647.396C1355.35 648.522 1355.21 649.642 1355.06 650.751C1353.91 659.661 1352.84 667.905 1341.52 673.217C1332.85 677.288 1323.77 678.681 1313.78 677.877C1304.73 677.149 1299.49 675.189 1304.01 667.975C1305.01 666.379 1306.11 664.763 1307.23 663.128C1312.94 654.741 1319.01 645.838 1313.78 636.329C1306.31 622.766 1277.61 625.442 1262.89 627.981C1247.05 630.713 1232.31 638.283 1225.45 650.065C1218.36 662.235 1225.36 676.047 1233.78 686.711C1235.49 688.879 1237.34 690.972 1239.17 693.061L1239.18 693.065L1239.18 693.067C1242.73 697.095 1246.26 701.113 1248.84 705.64C1253.7 714.2 1256.14 723.562 1258.29 732.724C1258.48 733.529 1258.68 734.344 1258.88 735.167L1258.89 735.191C1260.56 742.06 1262.37 749.462 1259.85 756.216C1257.61 762.219 1252.59 767.647 1247.59 772.428C1237.73 781.866 1224.8 790.983 1208.15 788.3C1185.56 784.659 1179.05 769.64 1178.17 753.595C1177.3 737.619 1177.42 721.707 1181.28 705.98C1181.51 705.036 1181.75 704.077 1181.99 703.107C1187.17 682.291 1193.73 655.959 1164.24 643.998C1148.36 637.56 1129.89 636.403 1112.98 640.6C1099.59 643.925 1089.57 651.083 1079.48 658.291C1075.35 661.241 1071.21 664.2 1066.82 666.908C1043.27 681.437 1011.38 699.202 981.477 684.964C971.252 680.095 963.62 674.866 956.221 667.587C953.547 664.956 951.283 662.1 949.021 659.246C946.539 656.114 944.059 652.986 941.043 650.162C929.933 639.76 909.411 640.381 896.255 647.299C890.223 650.471 883.643 654.777 876.676 659.336C851.161 676.032 820.463 696.121 792.497 676.324C783.078 669.657 774.841 661.879 767.055 654.045C765.7 652.682 764.39 651.205 763.06 649.705C758.822 644.924 754.376 639.909 747.584 637.591C732.365 632.395 692.94 652.385 692.94 652.385C692.94 652.385 644.541 685.934 662.646 714.998C680.751 744.062 662.646 768.195 640.156 778.889C638.881 779.495 637.66 780.078 636.486 780.639C616.956 789.958 610.755 792.917 594.905 790.523C527.472 780.337 555.539 729.149 578.607 701.505C605.647 670.693 575.966 620.946 551.796 618.167C530.685 613.265 507.356 618.696 495.404 630.31C487.383 638.104 486.493 650.871 485.768 661.254L485.768 661.258C485.666 662.727 485.566 664.148 485.451 665.5C485.061 670.061 485.96 674.807 486.844 679.481L486.844 679.483C487.256 681.658 487.665 683.817 487.939 685.934C488.223 688.128 488.403 690.356 488.583 692.588C488.877 696.242 489.172 699.908 489.93 703.456C492.322 714.655 491.134 722.181 483.709 732.045C481.346 735.185 469.049 749.197 454.505 750.293C437.537 751.572 427.222 744.15 418.382 731.171C407.342 714.966 420.591 693.096 428.912 679.36C431.026 675.871 432.822 672.906 433.82 670.693C437.398 662.765 440.723 654.702 442.032 646.328C442.26 644.866 442.666 643.335 443.079 641.779C443.895 638.704 444.735 635.536 444.271 632.64C442.832 623.661 437.304 613.879 427.724 608.371C422.145 605.164 407.982 603.608 401.411 605.168C382.546 609.648 366.611 623.948 361.911 638.95C361.365 640.693 360.856 642.707 360.312 644.863C358.064 653.768 355.205 665.094 346.546 669.771C339.747 673.444 332.44 675.977 324.09 674.771C313.752 673.277 311.429 664.68 309.376 657.083C308.735 654.709 308.12 652.433 307.295 650.502C306.146 647.812 305.284 644.912 304.41 641.972C302.451 635.377 300.432 628.581 294.978 623.515C288.047 617.077 268.743 619.628 252.751 623.515C238.39 627.005 224.172 634.991 218.901 640.018C213.368 645.294 209.14 649.336 205.527 655.744C202.809 660.563 201.721 665.69 200.634 670.81C200.291 672.426 199.949 674.04 199.555 675.644C195.17 693.511 195.809 713.373 200.177 731.171C200.968 734.394 201.453 737.673 201.939 740.95C202.594 745.377 203.249 749.8 204.656 754.081C204.732 754.313 204.808 754.544 204.884 754.774L204.895 754.806C206.686 760.243 208.298 765.137 208.264 771.943C208.207 783.299 205.864 790.517 198.684 799.512C190.229 810.104 180.689 813.005 167.892 816.5C160.119 818.623 147.386 817.078 140.211 814.558C130.305 811.08 123.377 802.017 120.305 794.173C115.522 781.957 114.334 768.226 114.334 755.488Z" fill="#211C20"/>
<path d="M512.899 53.621C636.724 34.8216 701.492 30.1218 768.704 42.8846C835.915 55.6475 896.512 59.845 927.67 57.0788C958.829 54.3126 1118.65 44.8391 1153.31 42.8846C1306.69 35.9136 1383.26 42.8846 1478 57.0788V0H0V33.8341C36.0617 30.1934 53.7852 31.5628 71.4696 32.9291C84.927 33.9689 98.3618 35.0069 119.838 33.834C159.513 31.6673 187.645 33.6049 220.184 35.8461C234.997 36.8664 250.723 37.9495 268.867 38.7371C304.147 40.2684 329.728 45.2204 354.115 49.9411C396.111 58.0706 434.564 65.5142 512.899 53.621Z" fill="#FCFBF9"/>
</svg>
