<svg width="419" height="142" viewBox="0 0 419 142" fill="none" xmlns="http://www.w3.org/2000/svg">
<path d="M134 95L106.496 110.716C106.189 110.892 105.811 110.892 105.504 110.716L78.5039 95.2879C78.1923 95.1099 78 94.7785 78 94.4197V63.5803C78 63.2215 78.1923 62.8901 78.5039 62.7121L105.504 47.2835C105.811 47.1078 106.189 47.1078 106.496 47.2835L132.481 62.1318C133.152 62.5157 133.152 63.4843 132.481 63.8682L106 79" stroke="#FCFBF9" stroke-width="13" stroke-linecap="round"/>
<path d="M205 95L177.496 110.716C177.189 110.892 176.811 110.892 176.504 110.716L149.504 95.2879C149.192 95.1099 149 94.7785 149 94.4197V63.5803C149 63.2215 149.192 62.8901 149.504 62.7121L176.504 47.2835C176.811 47.1078 177.189 47.1078 177.496 47.2835L203.481 62.1318C204.152 62.5157 204.152 63.4843 203.481 63.8682L177 79" stroke="#FCFBF9" stroke-width="13" stroke-linecap="round"/>
<path d="M35.4961 110.716L62.4961 95.2879C62.8077 95.1099 63 94.7785 63 94.4197V63.5803C63 63.2215 62.8077 62.8901 62.4961 62.7121L35.4961 47.2835C35.1887 47.1078 34.8113 47.1078 34.5039 47.2835L7.50386 62.7121C7.19229 62.8901 7 63.2215 7 63.5803V94.4197C7 94.7785 7.19229 95.1099 7.50386 95.2879L34.5039 110.716C34.8113 110.892 35.1887 110.892 35.4961 110.716Z" stroke="#FCFBF9" stroke-width="13"/>
<path d="M7 31V63" stroke="#FCFBF9" stroke-width="13" stroke-linecap="round"/>
<path d="M261.762 29.9136V43.1197H247.536V123H232.344V43.1197H218.118V29.9136H261.762ZM271.479 29.9136H293.596C307.089 29.9136 313.835 36.4451 313.835 49.508V63.4655C313.835 71.6611 309.845 77.0652 301.864 79.6778L318.935 123H302.293L288.604 82.0399L286.671 82.3083V123H271.479V29.9136ZM286.671 43.1197V69.8001H290.161C292.272 69.8001 293.722 69.6749 294.509 69.4243C297.265 68.4581 298.643 66.4718 298.643 63.4655V49.508C298.643 45.2491 296.442 43.1197 292.04 43.1197H286.671ZM324.625 29.9136H364.029V43.1197H339.818V69.8001H360.647V83.1135H339.818V109.74H364.029V123H324.625V29.9136ZM375.302 29.9136H414.705V43.1197H390.494V69.8001H411.323V83.1135H390.494V109.74H414.705V123H375.302V29.9136Z" fill="#FCFBF9"/>
</svg>
